<?xml version="1.0" standalone="no"?>
<!DOCTYPE svg PUBLIC "-//W3C//DTD SVG 20010904//EN"
 "http://www.w3.org/TR/2001/REC-SVG-20010904/DTD/svg10.dtd">
<svg version="1.0" xmlns="http://www.w3.org/2000/svg"
 width="493.000000pt" height="363.000000pt" viewBox="0 0 493.000000 363.000000"
 preserveAspectRatio="xMidYMid meet">

<g transform="translate(0.000000,363.000000) scale(0.100000,-0.100000)"
fill="#000000" stroke="none">
<path d="M1230 3615 c-8 -2 -49 -9 -90 -15 -92 -15 -239 -61 -334 -104 -373
-171 -661 -517 -762 -915 -64 -251 -56 -530 22 -768 155 -475 566 -837 1059
-933 53 -10 89 -22 88 -29 -2 -6 -95 -162 -209 -348 -113 -185 -208 -350 -211
-365 -7 -36 12 -83 43 -103 55 -36 55 -37 860 399 l766 415 611 4 c571 4 618
5 707 25 559 120 969 529 1092 1090 32 145 32 416 0 561 -127 565 -569 984
-1137 1076 -76 13 -280 15 -1290 14 -660 -1 -1207 -3 -1215 -4z m2573 -237
c223 -62 379 -152 541 -313 158 -157 253 -319 306 -520 152 -581 -170 -1200
-731 -1406 -195 -72 -196 -72 -890 -76 l-626 -4 -599 -324 c-329 -178 -600
-322 -602 -321 -2 2 64 113 146 248 82 134 152 253 156 265 11 34 -21 98 -57
116 -18 9 -85 20 -152 26 -155 14 -283 49 -420 115 -457 220 -723 714 -654
1212 34 245 158 493 333 670 129 129 297 232 471 289 169 55 131 54 1455 52
l1225 -2 98 -27z"/>
<path d="M2140 2910 c-11 -11 -20 -29 -20 -41 0 -11 -4 -17 -10 -14 -6 4 -10
-5 -10 -19 0 -14 5 -26 10 -26 6 0 10 -32 10 -75 0 -73 1 -75 25 -75 24 0 25
2 25 74 0 65 2 74 20 79 11 3 20 12 20 20 0 8 -9 17 -20 20 -11 3 -20 10 -20
17 0 7 9 14 20 17 11 3 20 14 20 24 0 26 -44 25 -70 -1z"/>
<path d="M2268 2920 c-9 -6 -19 -24 -23 -40 -4 -17 -11 -28 -16 -24 -5 3 -9
-6 -9 -20 0 -14 5 -26 10 -26 6 0 10 -32 10 -75 0 -73 1 -75 25 -75 24 0 25 2
25 75 0 68 2 75 20 75 27 0 27 36 0 43 -23 6 -17 37 6 37 8 0 14 9 14 20 0 22
-32 27 -62 10z"/>
<path d="M2357 2917 c-8 -21 8 -39 29 -35 11 2 20 13 22 26 3 18 -1 22 -21 22
-14 0 -27 -6 -30 -13z"/>
<path d="M3402 2908 c3 -25 36 -37 48 -17 13 20 0 39 -27 39 -20 0 -24 -4 -21
-22z"/>
<path d="M3500 2790 l0 -130 25 0 25 0 0 130 0 130 -25 0 -25 0 0 -130z"/>
<path d="M3600 2791 l0 -131 25 0 26 0 -3 128 c-3 123 -4 127 -25 130 -23 3
-23 3 -23 -127z"/>
<path d="M1231 2897 c-50 -18 -76 -58 -76 -119 0 -45 4 -53 37 -84 89 -81 219
-15 205 103 -5 50 -28 80 -74 99 -38 17 -47 17 -92 1z m99 -57 c29 -29 27 -84
-5 -115 -45 -46 -111 -22 -121 45 -12 73 75 121 126 70z"/>
<path d="M1670 2759 c0 -98 0 -99 25 -99 23 0 24 3 27 67 3 62 5 68 28 73 31
7 42 50 13 50 -11 0 -24 -5 -31 -12 -8 -8 -12 -8 -12 -1 0 6 -11 13 -25 15
l-25 5 0 -98z"/>
<path d="M1954 2853 c-69 -13 -95 -122 -41 -169 41 -35 99 -33 138 5 72 72 6
184 -97 164z m67 -67 c27 -58 -27 -111 -71 -71 -38 34 -18 95 31 95 21 0 32
-6 40 -24z"/>
<path d="M2514 2853 c-68 -13 -95 -122 -41 -169 40 -35 99 -33 135 4 l27 27
-24 3 c-13 2 -34 -2 -47 -8 -45 -24 -85 21 -65 73 8 21 17 27 40 27 16 0 31
-5 33 -11 2 -6 17 -9 33 -7 l29 3 -25 27 c-25 27 -58 38 -95 31z"/>
<path d="M2725 2853 c-30 -7 -63 -42 -70 -73 -8 -35 16 -95 43 -109 33 -18 87
-13 116 10 34 27 33 39 -4 39 -16 0 -30 -5 -30 -11 0 -18 -64 -6 -68 13 -3 14
7 18 65 20 l68 3 -2 29 c-4 51 -64 91 -118 79z m46 -43 c34 -19 23 -40 -21
-40 -43 0 -55 20 -22 39 21 13 20 13 43 1z"/>
<path d="M2958 2846 c-16 -8 -28 -11 -28 -5 0 5 -11 9 -25 9 -25 0 -25 0 -25
-95 0 -95 0 -95 25 -95 24 0 25 3 25 54 0 70 7 86 36 86 20 0 24 5 24 30 0 17
-1 30 -2 30 -2 0 -15 -7 -30 -14z"/>
<path d="M1440 2775 c0 -62 4 -79 20 -95 22 -22 79 -27 98 -8 9 9 12 9 12 0 0
-7 11 -12 25 -12 25 0 25 0 25 95 0 94 0 95 -25 95 -23 0 -24 -3 -27 -66 -3
-74 -21 -99 -55 -78 -14 8 -19 27 -21 78 -3 63 -4 66 -27 66 -24 0 -25 -2 -25
-75z"/>
<path d="M2360 2755 c0 -95 0 -95 25 -95 25 0 25 0 25 95 0 95 0 95 -25 95
-25 0 -25 0 -25 -95z"/>
<path d="M3090 2843 c0 -5 7 -30 15 -58 9 -27 20 -67 26 -87 8 -33 14 -38 38
-38 26 0 29 5 41 55 7 31 17 58 20 60 4 3 13 -22 20 -55 12 -56 15 -60 40 -60
26 0 30 5 48 68 38 124 38 124 11 120 -21 -3 -26 -12 -38 -68 -15 -70 -16 -70
-41 28 -9 37 -14 42 -39 42 -26 0 -29 -4 -41 -60 -7 -33 -16 -62 -20 -65 -3
-2 -12 25 -19 60 -12 58 -16 65 -37 65 -13 0 -24 -3 -24 -7z"/>
<path d="M3400 2755 c0 -95 0 -95 25 -95 25 0 25 0 25 95 0 95 0 95 -25 95
-25 0 -25 0 -25 -95z"/>
<path d="M2257 2497 c-8 -21 8 -39 29 -35 11 2 20 13 22 26 3 18 -1 22 -21 22
-14 0 -27 -6 -30 -13z"/>
<path d="M2810 2454 c0 -14 -4 -23 -10 -19 -6 4 -10 -5 -10 -19 0 -14 5 -26
10 -26 6 0 10 -24 10 -53 0 -68 19 -97 66 -97 27 0 34 4 34 19 0 13 -8 21 -22
23 -20 3 -23 10 -26 55 -3 47 -1 52 20 55 31 4 36 35 6 40 -15 2 -24 11 -26
26 -3 16 -10 22 -28 22 -19 0 -24 -5 -24 -26z"/>
<path d="M4100 2455 c0 -16 -6 -25 -15 -25 -8 0 -15 -7 -15 -15 0 -9 7 -18 15
-21 11 -5 15 -22 15 -64 0 -64 18 -90 63 -90 33 0 38 35 7 43 -17 4 -20 14
-20 56 0 44 3 51 20 51 13 0 20 7 20 20 0 13 -7 20 -20 20 -15 0 -20 7 -20 25
0 20 -5 25 -25 25 -20 0 -25 -5 -25 -25z"/>
<path d="M673 2425 c-39 -17 -53 -42 -53 -93 0 -79 90 -121 154 -71 14 11 26
24 26 29 0 14 -49 18 -54 4 -7 -17 -48 -18 -64 -2 -13 13 -16 56 -6 82 7 18
59 22 69 6 6 -10 55 -14 55 -4 0 19 -24 43 -51 53 -39 13 -37 13 -76 -4z"/>
<path d="M893 2429 c-66 -19 -85 -101 -37 -158 21 -25 33 -31 66 -31 50 0 74
13 94 52 41 80 -32 162 -123 137z m80 -72 c7 -21 5 -34 -7 -52 -31 -48 -86
-24 -86 37 0 33 20 49 54 46 22 -2 32 -10 39 -31z"/>
<path d="M1145 2431 c-11 -5 -35 -6 -52 -3 l-33 5 0 -97 c0 -96 0 -96 25 -96
24 0 25 3 25 56 0 66 13 94 43 94 37 0 47 -19 47 -87 0 -61 1 -63 25 -63 24 0
25 2 25 64 0 70 12 90 52 84 21 -3 23 -8 26 -75 l3 -73 31 0 31 0 -6 77 c-4
57 -11 81 -25 96 -25 24 -86 25 -113 1 -10 -9 -19 -12 -19 -7 0 8 -57 37 -64
32 -1 0 -10 -4 -21 -8z"/>
<path d="M1515 2430 c-11 -4 -35 -5 -52 -2 l-33 5 0 -97 c0 -96 0 -96 25 -96
24 0 25 2 25 64 0 70 12 90 52 84 21 -3 23 -8 26 -75 l3 -73 29 0 29 0 3 73
c3 67 5 72 26 75 40 6 52 -14 52 -84 0 -62 1 -64 25 -64 24 0 25 2 25 71 0 39
-4 79 -10 89 -20 38 -103 45 -125 10 -5 -8 -12 -7 -23 3 -22 19 -53 26 -77 17z"/>
<path d="M1930 2370 c0 -74 -12 -94 -52 -88 -21 3 -23 8 -26 76 l-3 72 -29 0
c-30 0 -30 -1 -30 -54 0 -64 16 -113 40 -126 26 -14 74 -12 88 2 9 9 12 9 12
0 0 -7 11 -12 25 -12 25 0 25 0 25 94 0 92 0 94 -25 98 -25 5 -25 4 -25 -62z"/>
<path d="M2114 2430 c-10 -4 -34 -5 -51 -2 l-33 5 0 -97 c0 -95 0 -96 25 -96
23 0 24 3 27 73 l3 72 35 0 35 0 3 -72 c3 -70 4 -73 27 -73 24 0 25 2 25 73 0
80 -14 112 -53 119 -13 3 -32 1 -43 -2z"/>
<path d="M2260 2339 c0 -99 0 -99 25 -99 25 0 25 0 25 94 0 92 0 94 -25 98
l-25 5 0 -98z"/>
<path d="M2415 2433 c-30 -7 -63 -42 -70 -73 -8 -35 16 -95 43 -109 39 -21 91
-13 120 17 l27 27 -24 3 c-13 2 -35 -2 -48 -9 -37 -20 -58 -1 -58 52 0 42 1
44 33 47 18 2 32 -1 32 -7 0 -6 14 -11 30 -11 36 0 38 9 8 37 -25 22 -62 33
-93 26z"/>
<path d="M2615 2430 c-28 -11 -51 -40 -59 -72 -8 -34 15 -93 42 -107 28 -15
75 -14 91 2 11 10 14 10 18 0 3 -7 16 -13 29 -13 24 0 24 1 24 95 0 95 0 95
-25 95 -14 0 -25 -5 -25 -11 0 -8 -4 -8 -12 -2 -20 16 -61 22 -83 13z m82 -66
c15 -24 15 -29 2 -53 -29 -51 -89 -35 -89 23 0 59 55 78 87 30z"/>
<path d="M2983 2425 c-37 -16 -53 -42 -53 -85 0 -63 34 -99 96 -100 30 0 46 6
62 23 12 13 22 26 22 30 0 11 -48 8 -55 -3 -14 -22 -75 -4 -75 22 0 4 32 8 70
8 63 0 70 2 70 19 0 40 -20 72 -55 86 -41 18 -42 18 -82 0z m79 -49 c12 -18
-2 -26 -43 -26 -28 0 -39 4 -39 15 0 30 64 38 82 11z"/>
<path d="M3283 2425 c-39 -16 -53 -42 -53 -93 0 -55 35 -92 88 -92 38 0 92 30
92 51 0 12 -47 12 -55 -1 -14 -22 -75 -4 -75 22 0 4 32 8 70 8 63 0 70 2 70
19 0 40 -20 72 -55 86 -41 18 -42 18 -82 0z m82 -61 c0 -5 -19 -10 -42 -12
-34 -2 -43 0 -43 13 0 23 41 36 65 20 11 -7 20 -16 20 -21z"/>
<path d="M3684 2426 c-87 -38 -58 -186 36 -186 20 0 41 5 48 12 9 9 12 9 12 0
0 -7 11 -12 25 -12 25 0 25 0 25 95 l0 95 -37 -2 c-21 -1 -47 1 -58 5 -11 3
-34 0 -51 -7z m84 -48 c17 -17 15 -73 -2 -88 -41 -33 -101 24 -78 74 13 28 58
36 80 14z"/>
<path d="M3923 2426 c-37 -17 -53 -43 -53 -86 0 -63 34 -99 96 -100 30 0 46 6
62 23 12 13 22 26 22 30 0 11 -48 8 -55 -3 -9 -14 -48 -13 -63 2 -16 16 -16
70 0 86 15 15 54 16 63 2 10 -16 55 -12 55 5 0 36 -80 61 -127 41z"/>
<path d="M3455 2403 c10 -16 24 -37 31 -47 11 -16 9 -25 -17 -62 -35 -52 -36
-54 -4 -54 17 0 29 8 37 25 6 14 14 25 18 25 4 0 15 -11 24 -25 10 -16 26 -25
41 -25 31 0 31 1 -2 52 l-27 41 27 48 27 49 -22 0 c-12 0 -32 -12 -44 -27
l-22 -28 -13 28 c-9 20 -19 27 -42 27 l-29 0 17 -27z"/>
<path d="M1398 2078 c-8 -22 3 -38 27 -38 24 0 35 16 28 38 -3 6 -15 12 -28
12 -12 0 -25 -6 -27 -12z"/>
<path d="M2494 2075 c-4 -9 -2 -21 4 -27 16 -16 47 -5 47 17 0 26 -42 34 -51
10z"/>
<path d="M3272 2068 c3 -25 36 -37 48 -17 13 20 0 39 -27 39 -20 0 -24 -4 -21
-22z"/>
<path d="M990 2036 l0 -44 -27 13 c-83 41 -154 -55 -108 -144 21 -41 72 -54
116 -31 13 7 19 7 19 0 0 -5 11 -10 25 -10 l25 0 0 130 0 130 -25 0 c-23 0
-25 -4 -25 -44z m-10 -85 c14 -28 12 -52 -7 -73 -20 -22 -46 -23 -67 -2 -19
18 -21 65 -4 82 19 19 66 15 78 -7z"/>
<path d="M1300 1950 l0 -130 25 0 25 0 0 130 0 130 -25 0 -25 0 0 -130z"/>
<path d="M3177 2073 c-4 -3 -7 -62 -7 -130 l0 -123 25 0 25 0 0 130 c0 119 -1
130 -18 130 -10 0 -22 -3 -25 -7z"/>
<path d="M2370 2040 c0 -11 -7 -23 -15 -26 -8 -4 -15 -13 -15 -20 0 -8 7 -17
15 -20 11 -5 15 -22 15 -70 0 -69 12 -84 64 -84 19 0 26 5 26 20 0 13 -7 20
-20 20 -18 0 -20 7 -20 55 0 48 2 55 20 55 13 0 20 7 20 20 0 13 -7 20 -20 20
-15 0 -20 7 -20 25 0 20 -5 25 -25 25 -18 0 -25 -5 -25 -20z"/>
<path d="M1145 2013 c-53 -13 -80 -68 -63 -129 11 -42 42 -64 89 -64 35 0 89
31 89 51 0 12 -47 12 -55 -1 -14 -22 -75 -4 -75 22 0 4 32 8 70 8 64 0 70 2
70 20 0 62 -62 108 -125 93z m46 -43 c34 -19 23 -40 -21 -40 -43 0 -55 20 -22
39 21 13 20 13 43 1z"/>
<path d="M1400 1919 c0 -99 0 -99 25 -99 25 0 25 0 25 94 0 92 0 94 -25 98
l-25 5 0 -98z"/>
<path d="M1765 2013 c-56 -13 -85 -80 -61 -138 17 -39 42 -55 89 -55 33 0 87
31 87 51 0 12 -47 12 -55 -1 -14 -22 -75 -4 -75 22 0 4 32 8 70 8 78 0 81 4
56 64 -16 39 -64 60 -111 49z m46 -43 c34 -19 23 -40 -21 -40 -43 0 -55 20
-22 39 21 13 20 13 43 1z"/>
<path d="M2675 2010 c-11 -4 -35 -5 -52 -2 l-33 5 0 -97 c0 -96 0 -96 25 -96
24 0 25 2 25 63 0 68 10 87 47 87 30 0 43 -28 43 -94 0 -53 1 -56 25 -56 24 0
25 3 25 63 0 75 8 90 46 85 29 -3 29 -4 32 -75 3 -70 4 -73 27 -73 24 0 25 2
25 74 0 91 -17 118 -74 118 -20 0 -45 -7 -55 -16 -14 -13 -19 -14 -32 -2 -20
19 -50 26 -74 16z"/>
<path d="M3003 2005 c-39 -17 -53 -42 -53 -95 0 -56 34 -90 88 -90 38 0 92 30
92 51 0 12 -47 12 -55 -1 -14 -22 -75 -4 -75 22 0 4 32 8 70 8 63 0 70 2 70
19 0 40 -20 72 -55 86 -41 18 -42 18 -82 0z m82 -61 c0 -5 -19 -10 -42 -12
-34 -2 -43 0 -43 13 0 23 41 36 65 20 11 -7 20 -16 20 -21z"/>
<path d="M3370 1919 c0 -99 0 -99 25 -99 24 0 25 3 25 63 0 75 8 90 46 85 29
-3 29 -4 32 -75 l3 -73 31 0 31 0 -6 76 c-6 81 -20 109 -61 116 -13 3 -32 1
-44 -3 -11 -4 -35 -4 -51 1 l-31 9 0 -100z"/>
<path d="M3653 2013 c-69 -13 -85 -133 -24 -180 28 -22 95 -16 119 10 12 13
22 26 22 30 0 11 -48 8 -55 -3 -14 -22 -75 -4 -75 22 0 4 32 8 70 8 68 0 70 1
70 26 0 38 -18 64 -55 80 -19 8 -38 13 -42 13 -4 -1 -18 -4 -30 -6z m69 -57
c15 -21 8 -26 -37 -26 -45 0 -52 5 -37 26 16 24 58 24 74 0z"/>
<path d="M3855 2010 c-56 -22 -57 -79 -3 -100 72 -26 90 -50 39 -50 -17 0 -31
5 -31 10 0 6 -11 10 -25 10 -31 0 -33 -23 -3 -44 32 -23 94 -20 118 4 36 36
19 71 -44 93 -22 8 -42 19 -44 25 -6 20 28 26 47 8 33 -30 66 -14 43 21 -7 11
-56 34 -70 32 -4 0 -16 -4 -27 -9z"/>
<path d="M1480 2008 c0 -2 15 -43 33 -93 32 -84 36 -90 64 -93 26 -3 32 1 41
25 5 15 21 58 35 96 l26 67 -28 0 c-27 0 -30 -4 -46 -65 -10 -36 -21 -65 -25
-65 -3 0 -15 28 -26 63 -17 54 -23 62 -47 65 -15 2 -27 2 -27 0z"/>
<path d="M1920 1915 c0 -95 0 -95 25 -95 24 0 25 3 25 58 0 60 11 82 42 82 13
0 18 8 18 25 0 27 -26 35 -48 13 -9 -9 -12 -9 -12 0 0 7 -11 12 -25 12 -25 0
-25 0 -25 -95z"/>
<path d="M2050 2001 c0 -5 16 -47 36 -94 l35 -85 -20 -41 c-26 -51 -26 -51 5
-51 19 0 28 8 39 33 7 17 34 80 59 140 l45 107 -28 0 c-24 0 -29 -6 -46 -56
-10 -30 -22 -57 -26 -59 -3 -3 -16 22 -28 55 -19 51 -26 60 -47 60 -13 0 -24
-4 -24 -9z"/>
<path d="M2490 1915 l0 -95 30 0 30 0 0 95 0 95 -30 0 -30 0 0 -95z"/>
<path d="M3270 1915 c0 -95 0 -95 25 -95 25 0 25 0 25 95 0 95 0 95 -25 95
-25 0 -25 0 -25 -95z"/>
<path d="M2870 1530 c0 -123 1 -130 20 -130 19 0 20 7 20 130 0 123 -1 130
-20 130 -19 0 -20 -7 -20 -130z"/>
<path d="M2960 1530 l0 -130 25 0 25 0 0 130 0 130 -25 0 -25 0 0 -130z"/>
<path d="M1933 1589 c-66 -19 -85 -101 -37 -158 21 -25 33 -31 66 -31 50 0 74
13 94 52 41 80 -32 162 -123 137z m80 -72 c7 -21 5 -34 -7 -52 -31 -48 -86
-24 -86 37 0 33 20 49 54 46 22 -2 32 -10 39 -31z"/>
<path d="M2178 1586 c-16 -8 -28 -11 -28 -5 0 5 -11 9 -25 9 -25 0 -25 0 -25
-95 0 -95 0 -95 25 -95 24 0 25 3 25 56 0 66 13 94 43 94 37 0 47 -19 47 -87
0 -61 1 -63 25 -63 24 0 25 2 25 65 0 79 -14 111 -53 125 -36 12 -27 13 -59
-4z"/>
<path d="M2474 1593 c-69 -13 -90 -137 -32 -178 32 -22 90 -19 122 6 34 27 33
39 -4 39 -16 0 -30 -4 -30 -10 0 -15 -46 -12 -59 4 -7 8 -11 32 -9 53 3 34 6
38 32 41 16 2 33 -1 39 -7 11 -11 57 -15 57 -5 0 26 -61 69 -89 63 -3 -1 -16
-4 -27 -6z"/>
<path d="M2674 1590 c-57 -22 -74 -121 -29 -165 26 -27 72 -33 106 -15 13 7
19 7 19 0 0 -5 11 -10 25 -10 25 0 25 0 25 95 0 95 0 95 -25 95 -14 0 -25 -5
-25 -11 0 -8 -4 -8 -12 -2 -20 16 -61 22 -84 13z m88 -66 c23 -50 -37 -107
-78 -74 -17 15 -19 71 -2 88 22 22 67 14 80 -14z"/>
</g>
</svg>
