<?xml version="1.0" standalone="no"?>
<!DOCTYPE svg PUBLIC "-//W3C//DTD SVG 20010904//EN"
 "http://www.w3.org/TR/2001/REC-SVG-20010904/DTD/svg10.dtd">
<svg version="1.0" xmlns="http://www.w3.org/2000/svg"
 width="920.000000pt" height="512.000000pt" viewBox="0 0 920.000000 512.000000"
 preserveAspectRatio="xMidYMid meet">

<g transform="translate(0.000000,512.000000) scale(0.100000,-0.100000)"
fill="#000000" stroke="none">
<path d="M3429 4360 c-114 -9 -276 -44 -379 -83 -359 -135 -659 -428 -800
-781 -72 -178 -100 -326 -100 -518 0 -375 138 -707 405 -973 201 -202 435
-328 716 -385 50 -10 92 -20 94 -22 1 -2 -94 -160 -211 -353 -238 -390 -242
-399 -185 -456 28 -27 49 -34 96 -29 11 1 365 188 786 416 l766 414 564 0
c330 0 600 4 649 10 588 72 1065 515 1195 1110 25 115 31 364 11 487 -46 293
-175 544 -390 758 -167 166 -328 266 -547 339 -214 72 -166 70 -1429 72 -624
1 -1183 -2 -1241 -6z m2512 -242 c236 -65 425 -172 570 -325 285 -298 389
-706 283 -1113 -29 -112 -123 -308 -188 -395 -139 -182 -313 -315 -522 -398
-178 -71 -159 -70 -879 -76 l-650 -6 -530 -288 c-291 -159 -563 -307 -604
-329 -55 -31 -71 -36 -63 -22 6 11 76 127 156 259 80 131 146 247 146 257 0
10 -7 34 -15 54 -20 47 -78 73 -166 74 -269 1 -563 131 -774 344 -170 171
-280 379 -326 616 -17 87 -17 317 0 410 77 426 377 772 792 911 175 58 153 58
1469 56 l1205 -2 96 -27z"/>
</g>
</svg>
