<?xml version="1.0" encoding="utf-8"?>
<!-- Generator: Adobe Illustrator 20.1.0, SVG Export Plug-In . SVG Version: 6.00 Build 0)  -->
<svg version="1.1" id="Layer_1" xmlns="http://www.w3.org/2000/svg" xmlns:xlink="http://www.w3.org/1999/xlink" x="0px" y="0px"
	 viewBox="0 0 385 285" style="enable-background:new 0 0 385 285;" xml:space="preserve">
<style type="text/css">
	.st0{fill:none;stroke:#000000;stroke-width:2;stroke-miterlimit:10;}
	.st1{fill:none;stroke:#00FF00;stroke-width:2;stroke-miterlimit:10;}
	.st2{fill:none;stroke:#00FF00;stroke-width:3;stroke-miterlimit:10;}
	.st3{font-family:'MyriadPro-Regular';}
	.st4{font-size:22.502px;}
	.st5{fill:#F52604;stroke:#000000;stroke-width:2;stroke-miterlimit:10;}
	.st6{fill:#F52604;}
	.st7{fill:none;stroke:#000000;stroke-width:2;stroke-linecap:round;stroke-miterlimit:10;}
	.st8{fill:none;stroke:#FFFFFF;stroke-width:2;stroke-linecap:round;stroke-miterlimit:10;}
	.st9{fill:none;stroke:#FEFFFF;stroke-width:2;stroke-linecap:round;stroke-miterlimit:10;}
</style>
<g>
	<path class="st0" d="M306.6,90.2c6.7,16.1,10.3,33.8,10.3,52.3c0,77.1-63.7,139.6-142.4,139.6c-68,0-124.9-46.7-139-109.3"/>
	<path class="st0" d="M37.2,105.5C53.7,46.3,108.9,2.9,174.5,2.9c45.1,0,85.2,20.5,111.3,52.5"/>
	<path class="st1" d="M285.8,55.4"/>
	<path class="st2" d="M306.6,90.2"/>
	<text transform="matrix(1 0 0 1 259.9453 150.2686)" class="st3 st4">$</text>
	<circle class="st5" cx="301.9" cy="236.2" r="38.3"/>
	<circle class="st0" cx="348.4" cy="25.5" r="7.9"/>
	<polygon class="st0" points="17.5,35.5 4.2,32.3 8.5,17.6 21.8,21.7 	"/>
	<polygon class="st0" points="369.1,140.1 360.2,129.7 372.3,120.3 380.6,131.4 	"/>
	<path class="st6" d="M225.2,226.5h-114l8.8-121.8c0-11.3,9.2-20.5,20.5-20.5h95.7l11,120.4C247.1,216.8,237.3,226.5,225.2,226.5z"
		/>
	<path class="st7" d="M213.7,69.2h12.8c7.2,0,13,5.8,13,13l12,131.4c0,7.2-5.8,13-13,13H111.8c-7.2,0-13-5.8-13-13l5-67.4H59.2"/>
	<path class="st7" d="M31.3,130H105l2.3-30.7c0-16.6,5.1-30.1,21.7-30.1h4.3"/>
	<line class="st0" x1="72" y1="162.1" x2="103.5" y2="162.1"/>
	<line class="st7" x1="93.6" y1="59.2" x2="82" y2="72.5"/>
	<line class="st7" x1="94.4" y1="71.6" x2="81.1" y2="60.1"/>
	<line class="st7" x1="19.7" y1="219.9" x2="8.1" y2="233.2"/>
	<line class="st7" x1="20.5" y1="232.3" x2="7.2" y2="220.8"/>
	<line class="st8" x1="310.1" y1="233.2" x2="298.5" y2="246.4"/>
	<line class="st8" x1="311" y1="245.6" x2="297.7" y2="234"/>
	<path class="st7" d="M213.7,67.8v1.4h-80.5v-1.4c0-21.8,17.7-39.4,39.4-39.4h1.7C196.1,28.4,213.7,46.1,213.7,67.8z"/>
	<line class="st9" x1="179.2" y1="206.2" x2="226.5" y2="206.2"/>
	<line class="st9" x1="164" y1="206.2" x2="170.9" y2="206.2"/>
	<line class="st9" x1="191.4" y1="130" x2="158.9" y2="167.5"/>
	<line class="st9" x1="193.9" y1="165" x2="156.4" y2="132.5"/>
</g>
</svg>
