<?xml version="1.0" standalone="no"?>
<!DOCTYPE svg PUBLIC "-//W3C//DTD SVG 20010904//EN"
 "http://www.w3.org/TR/2001/REC-SVG-20010904/DTD/svg10.dtd">
<svg version="1.0" xmlns="http://www.w3.org/2000/svg"
 width="211.000000pt" height="239.000000pt" viewBox="0 0 211.000000 239.000000"
 preserveAspectRatio="xMidYMid meet">

<g transform="translate(0.000000,239.000000) scale(0.100000,-0.100000)"
fill="#000000" stroke="none">
<path d="M975 2379 c-21 -5 -145 -61 -275 -124 -240 -116 -413 -181 -604 -226
l-99 -24 7 -145 c27 -572 195 -1040 508 -1415 131 -159 339 -334 489 -415 l56
-30 62 38 c155 94 370 288 501 452 301 378 459 824 486 1375 l7 140 -99 24
c-192 45 -364 110 -604 226 -281 136 -326 149 -435 124z m390 -206 c270 -131
392 -178 603 -233 l42 -11 0 -63 c0 -101 -19 -272 -46 -405 -83 -418 -279
-789 -568 -1077 -95 -95 -293 -256 -333 -271 -7 -3 -57 24 -110 60 -504 338
-817 938 -850 1628 l-6 127 44 12 c198 50 387 124 613 237 212 107 231 114
311 110 66 -2 82 -8 300 -114z"/>
</g>
</svg>
