<?xml version="1.0" standalone="no"?>
<!DOCTYPE svg PUBLIC "-//W3C//DTD SVG 20010904//EN"
 "http://www.w3.org/TR/2001/REC-SVG-20010904/DTD/svg10.dtd">
<svg version="1.0" xmlns="http://www.w3.org/2000/svg"
 width="840.000000pt" height="1060.000000pt" viewBox="0 0 840.000000 1060.000000"
 preserveAspectRatio="xMidYMid meet">

<g transform="translate(0.000000,1060.000000) scale(0.100000,-0.100000)"
fill="#000000" stroke="none">
<path d="M4058 10181 c-93 -30 -142 -66 -287 -205 -412 -397 -898 -684 -1496
-881 -500 -166 -995 -247 -1588 -262 l-249 -6 -9 -24 c-24 -64 -92 -371 -123
-553 -74 -441 -100 -772 -100 -1280 0 -423 12 -628 59 -995 272 -2113 1370
-3849 3210 -5074 306 -204 527 -334 601 -354 56 -16 65 -16 115 -1 103 30 671
390 988 626 678 504 1167 991 1723 1714 339 441 643 984 852 1520 413 1065
542 2251 370 3424 -48 330 -111 614 -189 859 l-45 138 -247 6 c-893 22 -1696
226 -2348 595 -131 74 -382 244 -499 338 -59 48 -169 147 -245 221 -111 110
-149 141 -208 170 -93 45 -196 54 -285 24z m216 -509 c302 -293 611 -509 1022
-715 622 -311 1306 -485 2109 -537 94 -6 173 -14 177 -18 17 -18 101 -453 133
-692 65 -484 72 -1098 19 -1595 -117 -1100 -536 -2168 -1170 -2980 -574 -736
-1026 -1181 -1694 -1666 -254 -185 -708 -479 -738 -479 -30 0 -468 284 -716
464 -954 693 -1695 1561 -2161 2529 -244 508 -415 1021 -525 1574 -173 879
-171 1876 8 2758 l18 90 99 8 c702 54 1058 118 1550 282 493 163 953 404 1323
693 133 103 331 280 384 343 23 27 43 49 46 49 3 0 55 -48 116 -108z"/>
<path d="M3920 9021 c-328 -322 -788 -590 -1295 -756 -392 -128 -920 -215
-1312 -215 l-92 0 -10 -37 c-37 -135 -83 -410 -111 -653 -84 -735 -25 -1531
166 -2235 249 -919 716 -1724 1399 -2411 315 -317 632 -576 1020 -835 129 -85
397 -250 401 -246 2 2 -1 239 -6 528 -15 869 -43 3343 -60 5409 -7 729 -15
1370 -18 1425 l-7 100 -75 -74z"/>
</g>
</svg>
