<?xml version="1.0" encoding="utf-8"?>
<!-- Generator: Adobe Illustrator 24.3.0, SVG Export Plug-In . SVG Version: 6.00 Build 0)  -->
<svg version="1.1" id="Layer_1" xmlns="http://www.w3.org/2000/svg" xmlns:xlink="http://www.w3.org/1999/xlink" x="0px" y="0px"
	 viewBox="0 0 24 24" style="enable-background:new 0 0 24 24;" xml:space="preserve">
<style type="text/css">
	.st0{fill-rule:evenodd;clip-rule:evenodd;}
</style>
<path class="st0" d="M22.53,24H12.16h-0.29H1.45c-1.17,0-1.59-0.24-1.41-1.46c0.25-1.46,1.15-3.61,4.21-4.53
	C7.56,16.83,7.8,16.7,7.8,16.7s0.77-1.19,1.13-1.26C9,15.11,9.27,14.3,8.71,13.63c-0.62-0.85-1.2-3.01-0.97-4.4
	C7.78,8.7,7.18,7.86,7.18,5.94c0-0.55-0.98-1.77-0.98-1.77s1.69-0.44,1.72-0.55c0.23-0.71-0.41-1.27-0.41-1.27s1.23-0.11,1.93,0.07
	C9.68,2.3,8.38,1.55,8.64,1.45c0.57-0.23,2.46-0.03,3.25,0.39C11.86,1.32,11.6,0,11.71,0c0.21,0.6,1.59,1.6,2.68,1.96
	c1.09,0.37,1.47,1.2,1.73,1.49c0.77,0.81,0.45,0.85,0.71,2.5c0,1.92-0.32,2.76-0.28,3.29c0.26,0.04,0.26,0.09,0.26,1.47
	c0,1.37-0.7,1.76-0.99,1.76c-0.15,0.71-1.35,1.41-0.73,2.99c0.35,0.07,1.13,1.26,1.13,1.26s0.24,0.13,3.56,1.31
	c3.06,0.92,3.96,3.05,4.2,4.5C24.12,23.59,23.68,24,22.53,24z"/>
</svg>
